<mxfile host="app.diagrams.net" agent="Mozilla/5.0 (Windows NT 10.0; Win64; x64) AppleWebKit/537.36 (KHTML, like Gecko) Chrome/132.0.0.0 Safari/537.36 OPR/117.0.0.0" scale="1" border="0" version="26.2.15">
  <diagram name="Page-1" id="g5cH1t0SmlpA87fEUwU-">
    <mxGraphModel dx="988" dy="562" grid="1" gridSize="10" guides="1" tooltips="1" connect="1" arrows="1" fold="1" page="1" pageScale="1" pageWidth="850" pageHeight="1100" math="0" shadow="0">
      <root>
        <mxCell id="0" />
        <mxCell id="1" parent="0" />
        <mxCell id="zhgyyv9RaAxmv2rtKqCu-2" value="Customer" style="shape=umlActor;verticalLabelPosition=bottom;verticalAlign=top;html=1;" vertex="1" parent="1">
          <mxGeometry x="70" y="1100" width="30" height="60" as="geometry" />
        </mxCell>
        <mxCell id="zhgyyv9RaAxmv2rtKqCu-3" value="Raise issue" style="ellipse;whiteSpace=wrap;html=1;align=center;fillColor=#fff2cc;strokeColor=light-dark(#000000, #6d5100);strokeWidth=2;" vertex="1" parent="1">
          <mxGeometry x="180" y="1110" width="100" height="40" as="geometry" />
        </mxCell>
        <mxCell id="zhgyyv9RaAxmv2rtKqCu-4" value="Choose category" style="ellipse;whiteSpace=wrap;html=1;align=center;fillColor=#fff2cc;strokeColor=light-dark(#000000, #6d5100);strokeWidth=2;" vertex="1" parent="1">
          <mxGeometry x="410" y="1030" width="100" height="40" as="geometry" />
        </mxCell>
        <mxCell id="zhgyyv9RaAxmv2rtKqCu-5" value="Provide information" style="ellipse;whiteSpace=wrap;html=1;align=center;fillColor=#fff2cc;strokeColor=light-dark(#000000, #6d5100);strokeWidth=2;" vertex="1" parent="1">
          <mxGeometry x="410" y="1110" width="100" height="40" as="geometry" />
        </mxCell>
        <mxCell id="zhgyyv9RaAxmv2rtKqCu-6" value="Upload evidence" style="ellipse;whiteSpace=wrap;html=1;align=center;fillColor=#fff2cc;strokeColor=light-dark(#000000, #6d5100);strokeWidth=2;" vertex="1" parent="1">
          <mxGeometry x="415" y="1190" width="100" height="40" as="geometry" />
        </mxCell>
        <mxCell id="zhgyyv9RaAxmv2rtKqCu-7" value="&amp;lt;&amp;lt;include&amp;gt;&amp;gt;" style="html=1;verticalAlign=bottom;endArrow=open;dashed=1;endSize=8;curved=0;rounded=0;entryX=1;entryY=0;entryDx=0;entryDy=0;exitX=0;exitY=0.5;exitDx=0;exitDy=0;" edge="1" parent="1" source="zhgyyv9RaAxmv2rtKqCu-4" target="zhgyyv9RaAxmv2rtKqCu-3">
          <mxGeometry relative="1" as="geometry">
            <mxPoint x="660" y="1090" as="sourcePoint" />
            <mxPoint x="580" y="1090" as="targetPoint" />
          </mxGeometry>
        </mxCell>
        <mxCell id="zhgyyv9RaAxmv2rtKqCu-8" value="&amp;lt;&amp;lt;include&amp;gt;&amp;gt;" style="html=1;verticalAlign=bottom;endArrow=open;dashed=1;endSize=8;curved=0;rounded=0;entryX=1;entryY=0.5;entryDx=0;entryDy=0;exitX=0;exitY=0.5;exitDx=0;exitDy=0;" edge="1" parent="1" source="zhgyyv9RaAxmv2rtKqCu-5" target="zhgyyv9RaAxmv2rtKqCu-3">
          <mxGeometry relative="1" as="geometry">
            <mxPoint x="420" y="1040" as="sourcePoint" />
            <mxPoint x="295" y="1126" as="targetPoint" />
          </mxGeometry>
        </mxCell>
        <mxCell id="zhgyyv9RaAxmv2rtKqCu-9" value="&amp;lt;&amp;lt;extend&amp;gt;&amp;gt;" style="html=1;verticalAlign=bottom;endArrow=open;dashed=1;endSize=8;curved=0;rounded=0;entryX=1;entryY=1;entryDx=0;entryDy=0;exitX=0;exitY=0.5;exitDx=0;exitDy=0;" edge="1" parent="1" source="zhgyyv9RaAxmv2rtKqCu-6" target="zhgyyv9RaAxmv2rtKqCu-3">
          <mxGeometry relative="1" as="geometry">
            <mxPoint x="420" y="1140" as="sourcePoint" />
            <mxPoint x="310" y="1140" as="targetPoint" />
          </mxGeometry>
        </mxCell>
        <mxCell id="zhgyyv9RaAxmv2rtKqCu-14" value="" style="endArrow=none;html=1;rounded=0;exitX=0.5;exitY=0.5;exitDx=0;exitDy=0;exitPerimeter=0;entryX=0;entryY=0.5;entryDx=0;entryDy=0;" edge="1" parent="1" source="zhgyyv9RaAxmv2rtKqCu-2" target="zhgyyv9RaAxmv2rtKqCu-3">
          <mxGeometry width="50" height="50" relative="1" as="geometry">
            <mxPoint x="150" y="1240" as="sourcePoint" />
            <mxPoint x="200" y="1190" as="targetPoint" />
          </mxGeometry>
        </mxCell>
        <mxCell id="zhgyyv9RaAxmv2rtKqCu-15" value="Manager" style="shape=umlActor;verticalLabelPosition=bottom;verticalAlign=top;html=1;" vertex="1" parent="1">
          <mxGeometry x="70" y="1370" width="30" height="60" as="geometry" />
        </mxCell>
        <mxCell id="zhgyyv9RaAxmv2rtKqCu-16" value="Review issue" style="ellipse;whiteSpace=wrap;html=1;align=center;fillColor=#fff2cc;strokeColor=light-dark(#000000, #6d5100);strokeWidth=2;" vertex="1" parent="1">
          <mxGeometry x="180" y="1380" width="100" height="40" as="geometry" />
        </mxCell>
        <mxCell id="zhgyyv9RaAxmv2rtKqCu-17" value="View issue information" style="ellipse;whiteSpace=wrap;html=1;align=center;fillColor=#fff2cc;strokeColor=light-dark(#000000, #6d5100);strokeWidth=2;" vertex="1" parent="1">
          <mxGeometry x="410" y="1300" width="100" height="40" as="geometry" />
        </mxCell>
        <mxCell id="zhgyyv9RaAxmv2rtKqCu-18" value="Validate information" style="ellipse;whiteSpace=wrap;html=1;align=center;fillColor=#fff2cc;strokeColor=light-dark(#000000, #6d5100);strokeWidth=2;" vertex="1" parent="1">
          <mxGeometry x="410" y="1380" width="100" height="40" as="geometry" />
        </mxCell>
        <mxCell id="zhgyyv9RaAxmv2rtKqCu-19" value="" style="endArrow=classic;html=1;rounded=0;exitX=0.5;exitY=1;exitDx=0;exitDy=0;" edge="1" parent="1" source="zhgyyv9RaAxmv2rtKqCu-3" target="zhgyyv9RaAxmv2rtKqCu-16">
          <mxGeometry width="50" height="50" relative="1" as="geometry">
            <mxPoint x="160" y="1280" as="sourcePoint" />
            <mxPoint x="210" y="1230" as="targetPoint" />
          </mxGeometry>
        </mxCell>
        <mxCell id="zhgyyv9RaAxmv2rtKqCu-20" value="" style="endArrow=none;html=1;rounded=0;exitX=0.5;exitY=0.5;exitDx=0;exitDy=0;exitPerimeter=0;entryX=0;entryY=0.5;entryDx=0;entryDy=0;" edge="1" parent="1" source="zhgyyv9RaAxmv2rtKqCu-15" target="zhgyyv9RaAxmv2rtKqCu-16">
          <mxGeometry width="50" height="50" relative="1" as="geometry">
            <mxPoint x="130" y="1360" as="sourcePoint" />
            <mxPoint x="225" y="1360" as="targetPoint" />
          </mxGeometry>
        </mxCell>
        <mxCell id="zhgyyv9RaAxmv2rtKqCu-21" value="Forward issue" style="ellipse;whiteSpace=wrap;html=1;align=center;fillColor=#fff2cc;strokeColor=light-dark(#000000, #6d5100);strokeWidth=2;" vertex="1" parent="1">
          <mxGeometry x="410" y="1460" width="100" height="40" as="geometry" />
        </mxCell>
        <mxCell id="zhgyyv9RaAxmv2rtKqCu-22" value="Notify result" style="ellipse;whiteSpace=wrap;html=1;align=center;fillColor=#fff2cc;strokeColor=light-dark(#000000, #6d5100);strokeWidth=2;" vertex="1" parent="1">
          <mxGeometry x="410" y="1580" width="100" height="40" as="geometry" />
        </mxCell>
        <mxCell id="zhgyyv9RaAxmv2rtKqCu-23" value="Service Provider" style="shape=umlActor;verticalLabelPosition=bottom;verticalAlign=top;html=1;" vertex="1" parent="1">
          <mxGeometry x="840" y="1370" width="30" height="60" as="geometry" />
        </mxCell>
        <mxCell id="zhgyyv9RaAxmv2rtKqCu-24" value="Review issue" style="ellipse;whiteSpace=wrap;html=1;align=center;fillColor=#fff2cc;strokeColor=light-dark(#000000, #6d5100);strokeWidth=2;" vertex="1" parent="1">
          <mxGeometry x="665" y="1380" width="100" height="40" as="geometry" />
        </mxCell>
        <mxCell id="zhgyyv9RaAxmv2rtKqCu-25" value="&amp;lt;&amp;lt;include&amp;gt;&amp;gt;" style="html=1;verticalAlign=bottom;endArrow=open;dashed=1;endSize=8;curved=0;rounded=0;entryX=1;entryY=0;entryDx=0;entryDy=0;exitX=0;exitY=0.5;exitDx=0;exitDy=0;" edge="1" parent="1" source="zhgyyv9RaAxmv2rtKqCu-17" target="zhgyyv9RaAxmv2rtKqCu-16">
          <mxGeometry relative="1" as="geometry">
            <mxPoint x="435" y="1300" as="sourcePoint" />
            <mxPoint x="290" y="1366" as="targetPoint" />
          </mxGeometry>
        </mxCell>
        <mxCell id="zhgyyv9RaAxmv2rtKqCu-26" value="&amp;lt;&amp;lt;include&amp;gt;&amp;gt;" style="html=1;verticalAlign=bottom;endArrow=open;dashed=1;endSize=8;curved=0;rounded=0;entryX=1;entryY=0.5;entryDx=0;entryDy=0;exitX=0;exitY=0.5;exitDx=0;exitDy=0;" edge="1" parent="1" source="zhgyyv9RaAxmv2rtKqCu-18" target="zhgyyv9RaAxmv2rtKqCu-16">
          <mxGeometry relative="1" as="geometry">
            <mxPoint x="420" y="1330" as="sourcePoint" />
            <mxPoint x="275" y="1396" as="targetPoint" />
          </mxGeometry>
        </mxCell>
        <mxCell id="zhgyyv9RaAxmv2rtKqCu-27" value="&amp;lt;&amp;lt;extend&amp;gt;&amp;gt;" style="html=1;verticalAlign=bottom;endArrow=open;dashed=1;endSize=8;curved=0;rounded=0;entryX=1;entryY=1;entryDx=0;entryDy=0;exitX=0;exitY=0.5;exitDx=0;exitDy=0;" edge="1" parent="1" source="zhgyyv9RaAxmv2rtKqCu-21" target="zhgyyv9RaAxmv2rtKqCu-16">
          <mxGeometry relative="1" as="geometry">
            <mxPoint x="425" y="1220" as="sourcePoint" />
            <mxPoint x="275" y="1154" as="targetPoint" />
          </mxGeometry>
        </mxCell>
        <mxCell id="zhgyyv9RaAxmv2rtKqCu-28" value="" style="endArrow=none;html=1;rounded=0;exitX=1;exitY=0.5;exitDx=0;exitDy=0;entryX=0.5;entryY=0.5;entryDx=0;entryDy=0;entryPerimeter=0;" edge="1" parent="1" source="zhgyyv9RaAxmv2rtKqCu-24" target="zhgyyv9RaAxmv2rtKqCu-23">
          <mxGeometry width="50" height="50" relative="1" as="geometry">
            <mxPoint x="95" y="1410" as="sourcePoint" />
            <mxPoint x="190" y="1410" as="targetPoint" />
          </mxGeometry>
        </mxCell>
        <mxCell id="zhgyyv9RaAxmv2rtKqCu-29" value="" style="endArrow=classic;html=1;rounded=0;exitX=1;exitY=0.5;exitDx=0;exitDy=0;entryX=0;entryY=1;entryDx=0;entryDy=0;" edge="1" parent="1" source="zhgyyv9RaAxmv2rtKqCu-21" target="zhgyyv9RaAxmv2rtKqCu-24">
          <mxGeometry width="50" height="50" relative="1" as="geometry">
            <mxPoint x="240" y="1160" as="sourcePoint" />
            <mxPoint x="240" y="1390" as="targetPoint" />
          </mxGeometry>
        </mxCell>
        <mxCell id="zhgyyv9RaAxmv2rtKqCu-30" value="" style="endArrow=none;html=1;rounded=0;exitX=1;exitY=1;exitDx=0;exitDy=0;exitPerimeter=0;entryX=0;entryY=0.5;entryDx=0;entryDy=0;" edge="1" parent="1" source="zhgyyv9RaAxmv2rtKqCu-15" target="zhgyyv9RaAxmv2rtKqCu-22">
          <mxGeometry width="50" height="50" relative="1" as="geometry">
            <mxPoint x="95" y="1410" as="sourcePoint" />
            <mxPoint x="190" y="1410" as="targetPoint" />
          </mxGeometry>
        </mxCell>
        <mxCell id="zhgyyv9RaAxmv2rtKqCu-31" value="" style="endArrow=none;html=1;rounded=0;exitX=0;exitY=1;exitDx=0;exitDy=0;exitPerimeter=0;entryX=1;entryY=0.5;entryDx=0;entryDy=0;" edge="1" parent="1" source="zhgyyv9RaAxmv2rtKqCu-23" target="zhgyyv9RaAxmv2rtKqCu-22">
          <mxGeometry width="50" height="50" relative="1" as="geometry">
            <mxPoint x="110" y="1440" as="sourcePoint" />
            <mxPoint x="420" y="1610" as="targetPoint" />
          </mxGeometry>
        </mxCell>
        <mxCell id="zhgyyv9RaAxmv2rtKqCu-32" value="Contact client directly" style="ellipse;whiteSpace=wrap;html=1;align=center;fillColor=#fff2cc;strokeColor=light-dark(#000000, #6d5100);strokeWidth=2;" vertex="1" parent="1">
          <mxGeometry x="410" y="1710" width="100" height="40" as="geometry" />
        </mxCell>
        <mxCell id="zhgyyv9RaAxmv2rtKqCu-33" value="&amp;lt;&amp;lt;extend&amp;gt;&amp;gt;" style="html=1;verticalAlign=bottom;endArrow=open;dashed=1;endSize=8;curved=0;rounded=0;entryX=0.5;entryY=1;entryDx=0;entryDy=0;exitX=0.5;exitY=0;exitDx=0;exitDy=0;" edge="1" parent="1" source="zhgyyv9RaAxmv2rtKqCu-32" target="zhgyyv9RaAxmv2rtKqCu-22">
          <mxGeometry relative="1" as="geometry">
            <mxPoint x="420" y="1490" as="sourcePoint" />
            <mxPoint x="275" y="1424" as="targetPoint" />
          </mxGeometry>
        </mxCell>
      </root>
    </mxGraphModel>
  </diagram>
</mxfile>
